<svg width="163" height="33" viewBox="0 0 163 33" fill="none" xmlns="http://www.w3.org/2000/svg">
<path d="M44.6558 6.42849V25.4796H41.3578V6.42849H44.6558Z" fill="black"/>
<path d="M61.3907 12.0422L53.1857 31.0933H49.5332L52.0401 25.2612L46.6716 12.0422H50.5423L52.5856 17.8471L53.8675 21.636L55.2585 17.9289L57.7109 12.0422H61.3907Z" fill="black"/>
<path d="M66.2124 12.0425L66.4579 13.5971C67.4943 11.9357 68.883 11.6902 70.2468 11.6902C71.6105 11.6902 72.9719 12.2357 73.7083 12.9721L72.2082 15.8609C71.5264 15.2881 70.8991 14.9881 69.8104 14.9881C68.0671 14.9881 66.4579 15.9155 66.4579 18.3951V25.4819H63.1327V12.0448H66.2124V12.0425Z" fill="black"/>
<path d="M78.5891 8.25363C78.5891 10.8424 74.6638 10.8424 74.6638 8.25363C74.6638 5.66484 78.5891 5.66484 78.5891 8.25363ZM74.9638 11.9879V25.4797H78.289V11.9879H74.9638Z" fill="black"/>
<path d="M92.8162 23.7633C91.2616 25.2907 89.6274 25.8885 87.6386 25.8885C83.7407 25.8885 80.4973 23.5452 80.4973 18.7744C80.4973 14.0037 83.7407 11.6604 87.6386 11.6604C89.5456 11.6604 91.0184 12.2058 92.4912 13.6491L90.3933 15.8561C89.6024 15.1469 88.6228 14.7924 87.6954 14.7924C85.4612 14.7924 83.8248 16.4288 83.8248 18.7721C83.8248 21.3337 85.568 22.6974 87.6409 22.6974C88.7046 22.6974 89.766 22.3974 90.5843 21.5791L92.8185 23.7588L92.8162 23.7633Z" fill="black"/>
<path d="M103.062 15.6129C102.107 14.7128 101.019 14.4128 99.7368 14.4128C98.1548 14.4128 97.2843 14.9037 97.2843 15.7492C97.2843 16.5947 98.0753 17.113 99.7913 17.222C102.326 17.3857 105.542 17.9585 105.542 21.5291C105.542 23.8997 103.607 25.9453 99.764 25.9453C97.6389 25.9453 95.5115 25.5907 93.55 23.5474L95.1842 21.1768C96.1388 22.2405 98.3185 23.0292 99.8186 23.0565C101.073 23.0838 102.244 22.4292 102.244 21.4473C102.244 20.52 101.48 20.1381 99.5731 20.029C97.0389 19.8381 94.0137 18.9108 94.0137 15.8583C94.0137 12.8059 97.2298 11.6604 99.6822 11.6604C101.78 11.6604 103.362 12.0695 104.914 13.4309L103.062 15.6106V15.6129Z" fill="black"/>
<path d="M120.015 12.015L122.958 22.127L126.038 12.015H129.718L125.029 25.534H121.158L119.767 21.5542L118.567 17.0562L117.367 21.5542L115.976 25.534H112.105L107.389 12.015H111.096L114.176 22.127L117.092 12.015H120.008H120.015Z" fill="black"/>
<path d="M135.365 19.9472C135.584 21.6109 137.027 22.8087 139.372 22.8087C140.6 22.8087 142.207 22.3451 142.97 21.5541L145.095 23.652C143.677 25.1248 141.361 25.8316 139.318 25.8316C134.683 25.8316 131.931 22.9701 131.931 18.663C131.931 14.356 134.711 11.6308 139.072 11.6308C143.434 11.6308 146.377 14.4105 145.859 19.9449H135.365V19.9472ZM142.668 17.1948C142.45 15.4515 141.086 14.5787 139.179 14.5787C137.379 14.5787 135.909 15.4515 135.418 17.1948H142.668Z" fill="black"/>
<path d="M151.745 6.42849V13.8698C152.536 12.4789 154.743 11.7174 156.162 11.7174C160.087 11.7174 163.003 14.1153 163.003 18.7497C163.003 23.3841 160.032 25.7819 156.08 25.7819C154.443 25.7819 152.782 25.2364 151.745 23.6295L151.527 25.4819H148.42V6.42849H151.745ZM151.964 18.7474C151.964 21.1726 153.761 22.6999 155.862 22.6999C157.962 22.6999 159.678 21.0907 159.678 18.7474C159.678 16.4041 157.987 14.8222 155.862 14.8222C153.736 14.8222 151.964 16.4041 151.964 18.7474Z" fill="black"/>
<path d="M18.9901 3.04329L19.5655 3.61866L5.91588 17.2682C4.44212 18.742 2.05067 18.742 0.576904 17.2682L0.00154163 16.6929L13.6511 3.04329C15.1249 1.56953 17.5163 1.56953 18.9901 3.04329Z" fill="#0130E2"/>
<path d="M21.8544 5.90998L22.4298 6.48534C23.9036 7.9591 23.9036 10.3506 22.4298 11.8243L13.2401 21.014L12.6647 20.4387C11.1909 18.9649 11.1909 16.5735 12.6647 15.0997L21.8544 5.90998Z" fill="#0130E2"/>
<path d="M25.7084 18.47L26.2838 19.0453L18.2223 27.1068C16.7485 28.5806 14.357 28.5806 12.8833 27.1068L12.3079 26.5315L20.3694 18.47C21.8432 16.9962 24.2346 16.9962 25.7084 18.47Z" fill="#0130E2"/>
<path d="M32.9268 16.9788L33.5022 17.5542C34.9759 19.0279 34.9759 21.4194 33.5021 22.8931L24.3124 32.0829L23.7371 31.5075C22.2633 30.0337 22.2633 27.6423 23.7371 26.1685L32.9268 16.9788Z" fill="#0130E2"/>
</svg>
